<?xml version="1.0" encoding="utf-8"?>
<!-- Generator: Adobe Illustrator 24.2.1, SVG Export Plug-In . SVG Version: 6.00 Build 0)  -->
<svg version="1.1" id="Layer_1" xmlns="http://www.w3.org/2000/svg" xmlns:xlink="http://www.w3.org/1999/xlink" x="0px" y="0px"
	 viewBox="0 0 5661.12 2834.07" style="enable-background:new 0 0 5661.12 2834.07;" xml:space="preserve">
<style type="text/css">
	.st0{fill-rule:evenodd;clip-rule:evenodd;fill:#D6322A;}
	.st1{fill:#002197;}
	.st2{fill:#00871E;}
</style>
<path class="st0" d="M2137.65,803.91h294.48c76.79,0,143.62,46.05,170.96,117.81l84.86,222.75l84.86-222.75
	c27.34-71.76,94.16-117.81,170.95-117.81h213.3c-38.26-197.08-179.9-256.87-388.98-209.35c69.19-40.52,139.37-58.51,207.85-51.27
	c79.86,8.46,141.58,43.11,181.37,104.01c27.34,41.86,43.06,94.94,47.12,156.61h71.82c3.62,0,7.21,0.1,10.78,0.3
	c-3.75-77.46-23.81-144.3-60.01-197.91c-50.54-74.86-130.97-118.09-229.51-126.62c-84.76-7.35-169.62,15.33-252.54,65.39
	c-89.74,54.17-185.74,70.67-263.43,48.28c-39.75-11.44-78.46-13.35-115.89-6.15c-23.9,4.61-47.29,12.92-70.14,24.86
	c-62.06,32.47-110.18,83.79-140.71,148.73C2148.32,774.55,2142.61,788.93,2137.65,803.91 M4053.62,2190.55
	c-107.58,50.2-230.57,71.49-347.76,72.32c-100.42,0.71-199.82-7.32-295.91-38.29c-123.7-39.87-224.21-111.8-313.14-205.31
	c-12.96-13.62-23.43-28.74-31.4-44.79l-61.93,149.61c-28.66,69.24-94.09,112.97-169.03,112.97h-293.01
	c-33.13,0-64.81-8.59-92.31-24.55c-25.43,13.09-54,20-84.03,20h-321.85c-75.72,0-141.73-44.7-169.86-115l-23.84-59.59h-227.48
	l-23.84,59.59c-28.12,70.3-94.14,115-169.86,115h-318.82c-17.05,0-33.92-2.23-50.19-6.76c-51.78,15.41-105.08,25.28-158.92,30.22
	c-57.19,5.24-111.27-15.8-148.97-55.51c17.8-11.56,34.34-24.95,49.36-39.96l8.01-8.01c22.03,21.29,52.35,32.21,84.79,29.23
	c57.09-5.23,113.3-16.48,167.51-34.74c14.56,7.2,30.92,10.97,48.4,10.97h318.82c45.23,0,83.83-26.13,100.63-68.13l42.59-106.46
	h328.44l42.59,106.46c16.8,42,55.39,68.13,100.63,68.13h321.85c35.21,0,65.82-15.31,86.48-43.01c19.8,29.84,52.56,47.57,89.86,47.57
	h293.01c44.78,0,83.01-25.55,100.14-66.93l127.49-307.98h115.59l-29.98,34.38c-36.9,42.32-35.54,105.23,3.15,145.92
	c80.33,84.47,170.24,149.71,281.98,185.73c88.44,28.51,180.12,35.35,272.51,34.69c124.01-0.88,258.75-26.67,367.33-92.23
	c2.04,4.2,4.38,8.34,7,12.39c20.57,31.78,53.12,49.48,90.98,49.48h318.82c45.23,0,83.83-26.13,100.63-68.13l42.59-106.46h328.44
	l42.58,106.46c16.8,42,55.39,68.13,100.63,68.13h321.85c37.84,0,70.36-17.68,90.94-49.42c20.58-31.75,23.44-68.65,8-103.19
	L5049.93,942.61c-17.84-39.91-55.22-64.14-98.94-64.14h-303.64c-43.67,0-81.01,24.18-98.89,64.02l-291.52,649.89
	c-16.78-50.11-43.41-96.59-80.82-137.95c-38.93-43.04-85.93-76.57-137.2-102.58c1-1.17,1.99-2.38,2.95-3.6l148.78-189.77
	c36.79-46.93,28.58-115.18-18.28-152.05c-138.69-109.1-289.55-149.21-464.77-149.21c-112.43,0-234.89,21.85-336.59,76.98
	c-0.73-1.28-1.48-2.56-2.26-3.83l0,0c-0.77-1.25-1.57-2.5-2.4-3.74c-20.73-31.01-52.8-48.16-90.11-48.16h-332.48
	c-45.86,0-84.95,26.94-101.28,69.8l-121.45,318.82c-0.45,1.17-0.81,2.18-1.22,3.36l-32.04,93.24l-31.56-92.89
	c-0.45-1.31-0.85-2.42-1.34-3.72l-121.45-318.82c-16.33-42.86-55.42-69.8-101.28-69.8h-332.48c-37.3,0-69.38,17.14-90.11,48.16
	c-6.44,9.64-11.23,19.78-14.33,30.21l-6.36-14.23c-17.84-39.91-55.22-64.14-98.94-64.14h-303.64c-43.67,0-81.01,24.18-98.89,64.02
	l-117.55,262.05l-45.38-27.03l0.88-1.99c6.27-13.76,8.56-26.89,8.52-43.18c-0.07-30.25-11.07-56.25-32.73-77.37
	c-135.15-131.73-298.62-200.8-487.07-200.8c-198.78,0-386.89,64.83-521.71,215.17c-111.82,124.7-169.04,290.42-168.13,457.04
	c1.19,219.09,84.33,424.53,269.12,546.63l-22,22c-12.13,12.13-16.1,29.4-11.91,44.9C148.78,2004.67,51,1774.04,49.65,1526.8
	c-1.01-185.16,63.02-368.78,187.18-507.23c149.13-166.3,357.12-239.95,577.21-239.95c208.24,0,390.31,76.93,539.11,221.97
	c6.3,6.14,12.08,12.58,17.33,19.31l48.86-108.93c29.89-66.64,93.88-108.07,166.92-108.07h303.64c38.77,0,74.99,11.67,104.91,32.59
	c24.85-17.48,53.82-28.34,85.01-31.57c6.98-24.04,15.51-46.97,25.6-68.74c37.84-81.67,97.41-146.91,174.69-189.19
	c72.66-39.73,153.4-50.97,234.26-30.1c0.21,0.04,0.43,0.09,0.63,0.15c25.15,6.39,53.83-25.11,46.62-51.2
	c-19.19-69.45-25.39-165.51,17.67-287.95c0,0,86.16-58.93,113.86,11.58c0,0-94.29,117.75-69.69,291.26
	c2.77,19.49,22.68,28.08,43.25,19.34c15.46-6.57,30.84-14.56,45.92-24.02c99.93-62.83,208.94-94.24,315.89-87.91
	c127.85,7.56,234.13,60.91,302.3,157.06c54.48,76.86,81.16,175.09,79.49,289.14c94.2-36.09,197.95-51.7,297.3-51.7
	c191.65,0,358.7,45.46,510.87,165.17c79.14,62.25,92.98,177.41,30.86,256.65l-99.79,127.29c29.67,21.21,57.18,45.34,81.88,72.65
	c6.38,7.05,12.52,14.26,18.42,21.63l230.59-514.06c29.89-66.64,93.88-108.07,166.92-108.07h303.64c73.12,0,137.16,41.52,167,108.27
	l475.19,1062.72c25.73,57.55,20.79,121.29-13.5,174.19c-34.33,52.95-90.4,83.43-153.51,83.43h-321.85
	c-75.72,0-141.73-44.7-169.86-115l-23.84-59.59h-227.48l-23.84,59.59c-28.12,70.3-94.14,115-169.85,115h-318.82
	C4126.52,2232.52,4085.84,2217.62,4053.62,2190.55z"/>
<path class="st1" d="M4932.77,1622.97h-271.75l136.64-338.55L4932.77,1622.97z M5104.32,2049.58h321.85L4950.99,986.85h-303.64
	l-476.71,1062.72h318.82l69.84-174.59h475.19L5104.32,2049.58z M4105.36,1091.61c-113.86-89.57-238.35-126.01-397.76-126.01
	c-224.69,0-444.82,97.16-444.82,321.85c0,264.16,200.4,323.37,432.68,344.63c116.9,10.63,177.62,44.03,177.62,97.16
	c0,59.21-68.32,94.13-167,94.13c-89.57,0-206.47-18.22-311.23-119.94l-165.48,189.77c147.26,154.85,283.9,188.25,475.19,186.73
	c238.35-1.52,466.08-104.75,466.08-346.14c0-244.43-220.14-329.44-431.16-352.22c-104.75-10.63-176.11-21.26-176.11-94.13
	c0-56.17,71.35-78.94,144.23-78.94c92.61,0,176.11,18.22,248.98,72.87L4105.36,1091.61z M3276.24,986.85h-332.48l-121.46,318.82
	l-135.12,393.21l-133.6-393.21l-121.45-318.82h-332.48l441.79,1067.28h293.01L3276.24,986.85z M1871.69,1622.97h-271.75
	l136.64-338.55L1871.69,1622.97z M2043.24,2049.58h321.85L1889.91,986.85h-303.64l-476.71,1062.72h318.82l69.84-174.59h475.19
	L2043.24,2049.58z M1064.55,1714.06c-75.91,77.43-179.15,107.79-250.5,107.79c-209.51,0-282.38-156.37-283.9-294.53
	c-1.52-138.15,78.94-305.15,283.9-305.15c71.35,0,150.3,19.74,226.21,92.61l185.22-182.18
	c-119.94-116.9-258.09-170.04-411.43-170.04c-399.28,0-582.98,289.97-581.46,563.24c1,190.87,72.51,370.41,241.7,470.06l41.53-41.53
	l0.27-0.27c2.65-2.56,5.32-5.09,8.03-7.59c118.63-109.74,302.91-106.17,417.23,8.13l30.92,30.91l-48.39,48.16l-40.12,40.12
	c58.78-5.39,115.19-17.94,168.67-38.94l99.82-222.52L1064.55,1714.06z"/>
<path class="st2" d="M2848.92,120.68c-151.98,98.42-156.32,286.58-156.32,286.58s83.8-305.52,370.05-261.47
	c1.01,0.14,1.71,0.22,1.71,0.22c-0.59-0.08-1.13-0.11-1.71-0.22c-20.55-2.42-241.92-22.05-335.69,237.02
	c64.04-39,144.96-49.82,340.5-52.27C3299.04,327.65,3300.49,2,3300.49,2C3196.27,138.05,3000.89,22.26,2848.92,120.68"/>
<path class="st2" d="M910.51,1985.44c-98.18-98.16-255.77-100.43-356.77-6.95c-2.5,2.27-4.93,4.61-7.35,6.95L442.23,2089.6
	l-38.16,38.16c86.43,86.43,219.13,98.49,318.52,36.22c16.16-10.11,31.45-22.15,45.52-36.22l124.93-124.93L910.51,1985.44z"/>
<path class="st1" d="M5593.7,2783.77h65.42l-85.05-161.11l72.78-125.12h-66.24l-40.07,77.69l-14.72,31.89v-109.58h-57.25v286.23
	h57.25v-82.6l15.95-25.76L5593.7,2783.77z M5359.81,2497.55v286.23h58.06v-286.23H5359.81z M5389.25,2472.2
	c17.17,0,30.67-14.31,30.67-30.67c0-17.58-13.49-30.67-30.67-30.67c-17.99,0-30.67,13.08-30.67,30.67
	C5358.59,2458.7,5371.26,2472.2,5389.25,2472.2z M5332.42,2497.55h-171.74v55.2h56.02v231.03h59.7v-231.03h56.02V2497.55z
	 M5055.19,2789.5c56.84,0,89.96-34.35,89.96-81.37c0-91.18-113.67-94.05-113.67-139.02c0-13.08,9-21.26,24.12-21.26
	c16.76,0,25.35,9.4,25.35,28.21h59.7c0-52.75-31.89-84.23-84.64-84.23c-52.75,0-83.42,31.89-83.42,75.65
	c0,87.09,112.04,92.82,112.04,140.25c0,14.31-9.4,25.35-28.62,25.35c-18.4,0-29.85-9.81-29.85-32.71h-59.7
	C4966.45,2758.01,5000.8,2789.5,5055.19,2789.5z M4838.88,2681.14l6.54-32.71c4.09-20.44,8.59-55.2,11.45-78.51h1.64
	c2.86,23.31,7.77,58.06,11.45,78.51l6.54,32.71H4838.88z M4897.35,2783.77h60.11l-68.69-286.23h-62.15l-68.69,286.23h60.11
	l9.4-47.43h60.52L4897.35,2783.77z M4669.19,2728.57v-231.03h-58.06v286.23h143.11v-55.2H4669.19z M4483.96,2636.57h-24.12v-83.82
	h24.12c23.31,0,35.57,14.31,35.57,42.12C4519.53,2622.26,4507.26,2636.57,4483.96,2636.57z M4484.77,2497.55h-83.01v286.23h58.06
	v-92h24.94c59.29,0,94.46-35.98,94.46-96.91C4579.23,2533.53,4544.06,2497.55,4484.77,2497.55z M4245.57,2449.71l-130.03,384.36
	h47.43L4293,2449.71H4245.57z M3924.18,2728.57v-63.38h81.37v-53.16h-81.37v-59.29h89.55v-55.2h-147.61v286.23h151.7v-55.2H3924.18z
	 M3756.94,2497.55l-44.98,108.36c-5.72,14.31-15.54,39.25-18.81,49.89h-1.64c-3.27-10.63-13.08-35.57-18.81-49.89l-44.98-108.36
	h-58.47v286.23h56.43v-70.33c-1.23-34.76-2.86-69.51-4.09-104.27l2.04-0.82l25.76,75.24l14.31,38.85h57.25l14.31-38.85l25.76-75.24
	l2.04,0.82c-1.64,34.76-2.86,69.51-4.5,104.27v70.33h56.84v-286.23H3756.94z M3435.96,2728.57v-63.38h81.37v-53.16h-81.37v-59.29
	h89.55v-55.2h-147.61v286.23h151.7v-55.2H3435.96z M3265.04,2728.57v-231.03h-58.06v286.23h143.11v-55.2H3265.04z M3179.58,2497.55
	h-171.74v55.2h56.02v231.03h59.7v-231.03h56.02V2497.55z M2893.76,2728.57v-63.38h81.37v-53.16h-81.37v-59.29h89.55v-55.2H2835.7
	v286.23h151.7v-55.2H2893.76z M2748.6,2783.77h65.42l-85.05-161.11l72.78-125.12h-66.24l-40.07,77.69l-14.72,31.89v-109.58h-57.25
	v286.23h57.25v-82.6l15.95-25.76L2748.6,2783.77z M2478.32,2681.14l6.54-32.71c4.09-20.44,8.59-55.2,11.45-78.51h1.64
	c2.86,23.31,7.77,58.06,11.45,78.51l6.54,32.71H2478.32z M2536.79,2783.77h60.11l-68.69-286.23h-62.15l-68.69,286.23h60.11
	l9.4-47.43h60.52L2536.79,2783.77z M2309.04,2636.57h-24.12v-83.82h24.12c23.31,0,35.57,14.31,35.57,42.12
	C2344.61,2622.26,2332.34,2636.57,2309.04,2636.57z M2309.85,2497.55h-83.01v286.23h58.06v-92h24.94
	c59.29,0,94.46-35.98,94.46-96.91C2404.31,2533.53,2369.15,2497.55,2309.85,2497.55z M2070.65,2449.71l-130.03,384.36h47.43
	l130.03-384.36H2070.65z M1737.4,2681.14l6.54-32.71c4.09-20.44,8.59-55.2,11.45-78.51h1.64c2.86,23.31,7.77,58.06,11.45,78.51
	l6.54,32.71H1737.4z M1795.87,2783.77h60.11l-68.69-286.23h-62.15l-68.69,286.23h60.11l9.4-47.43h60.52L1795.87,2783.77z
	 M1538.68,2783.77h61.33l67.88-286.23h-60.11l-25.76,135.34c-4.09,20.85-9,56.02-11.86,79.73h-1.64
	c-2.86-23.72-7.77-58.88-11.86-79.73l-25.76-135.34h-60.11L1538.68,2783.77z M1363.67,2681.14l6.54-32.71
	c4.09-20.44,8.59-55.2,11.45-78.51h1.64c2.86,23.31,7.77,58.06,11.45,78.51l6.54,32.71H1363.67z M1422.14,2783.77h60.11
	l-68.69-286.23h-62.15l-68.69,286.23h60.11l9.4-47.43h60.52L1422.14,2783.77z M1197.66,2497.55v114.49h-58.88v-114.49h-58.47v286.23
	h58.47v-116.54h58.88v116.54h58.47v-286.23H1197.66z M993.21,2783.77h65.42l-85.05-161.11l72.78-125.12h-66.24l-40.07,77.69
	l-14.72,31.89v-109.58h-57.25v286.23h57.25v-82.6l15.95-25.76L993.21,2783.77z M731.11,2788.68c57.25,0,91.18-36.39,91.18-96.91
	v-194.23h-60.52v194.23c0,26.17-10.22,40.48-30.67,40.48s-30.67-14.31-30.67-40.48v-194.23h-60.52v194.23
	C639.92,2752.29,673.86,2788.68,731.11,2788.68z M515.62,2788.68c56.02,0,87.91-32.3,89.55-92.41v-71.97h-91.59v51.52h34.35v20.44
	c0,25.76-10.22,36.39-31.48,36.39c-20.44,0-30.67-10.63-30.67-36.39v-111.22c0-25.76,10.63-36.39,30.26-36.39
	c20.04,0,28.21,10.63,29.44,36.39h58.06c-2.04-60.11-32.3-92.41-87.5-92.41c-57.25,0-90.77,32.3-90.77,92.41v111.22
	C425.25,2756.38,458.78,2788.68,515.62,2788.68z M516.44,2468.92c28.21,0,50.7-17.58,51.93-50.7h-35.57
	c0,10.63-8.18,16.76-16.76,16.76c-8.59,0-16.76-6.13-16.76-16.76h-35.57C464.92,2450.11,487.4,2468.92,516.44,2468.92z
	 M298.09,2732.25c-21.67,0-32.71-14.31-32.71-41.3v-100.59c0-26.99,11.04-41.3,32.71-41.3c21.67,0,32.71,14.31,32.71,41.3v100.59
	C330.8,2717.94,319.76,2732.25,298.09,2732.25z M298.09,2788.68c58.06,0,92.82-36.39,92.82-97.73v-100.59
	c0-61.33-34.76-97.73-92.82-97.73s-92.82,36.39-92.82,97.73v100.59C205.27,2752.29,240.02,2788.68,298.09,2788.68z M88.73,2789.5
	c56.84,0,89.96-34.35,89.96-81.37c0-91.18-113.67-94.05-113.67-139.02c0-13.08,9-21.26,24.12-21.26c16.76,0,25.35,9.4,25.35,28.21
	h59.7c0-52.75-31.89-84.23-84.64-84.23c-52.75,0-83.41,31.89-83.41,75.65c0,87.09,112.04,92.82,112.04,140.25
	c0,14.31-9.4,25.35-28.62,25.35c-18.4,0-29.85-9.81-29.85-32.71H0C0,2758.01,34.35,2789.5,88.73,2789.5z"/>
</svg>
